<?xml version="1.0" encoding="iso-8859-1"?>
<!-- Generator: Adobe Illustrator 19.0.0, SVG Export Plug-In . SVG Version: 6.00 Build 0)  -->
<svg version="1.1" id="Capa_1" xmlns="http://www.w3.org/2000/svg" xmlns:xlink="http://www.w3.org/1999/xlink" x="0px" y="0px"
	 viewBox="0 0 512 512" style="enable-background:new 0 0 512 512;" xml:space="preserve">
<g>
	<g>
		<path d="M256,0C114.844,0,0,114.844,0,256s114.844,256,256,256s256-114.844,256-256S397.156,0,256,0z M53.333,266.667H32
			c-5.896,0-10.667-4.771-10.667-10.667S26.104,245.333,32,245.333h21.333C59.229,245.333,64,250.104,64,256
			S59.229,266.667,53.333,266.667z M245.333,32c0-5.896,4.771-10.667,10.667-10.667S266.667,26.104,266.667,32v21.333
			C266.667,59.229,261.896,64,256,64s-10.667-4.771-10.667-10.667V32z M266.667,480c0,5.896-4.771,10.667-10.667,10.667
			s-10.667-4.771-10.667-10.667v-21.333c0-5.896,4.771-10.667,10.667-10.667s10.667,4.771,10.667,10.667V480z M359.542,359.542
			c-2.083,2.083-4.813,3.125-7.542,3.125c-2.729,0-5.458-1.042-7.542-3.125l-83.26-83.26c-1.707,0.441-3.355,1.052-5.198,1.052
			c-11.76,0-21.333-9.573-21.333-21.333c0-11.049,8.552-19.865,19.328-20.927L321,91.49c2.5-5.323,8.854-7.604,14.177-5.156
			c5.344,2.49,7.646,8.844,5.156,14.177L273.28,244.189c2.355,3.43,4.053,7.346,4.053,11.811c0,1.842-0.611,3.491-1.052,5.198
			l83.26,83.26C363.708,348.625,363.708,355.375,359.542,359.542z M480,266.667h-21.333c-5.896,0-10.667-4.771-10.667-10.667
			s4.771-10.667,10.667-10.667H480c5.896,0,10.667,4.771,10.667,10.667S485.896,266.667,480,266.667z"/>
	</g>
</g>
<g>
</g>
<g>
</g>
<g>
</g>
<g>
</g>
<g>
</g>
<g>
</g>
<g>
</g>
<g>
</g>
<g>
</g>
<g>
</g>
<g>
</g>
<g>
</g>
<g>
</g>
<g>
</g>
<g>
</g>
</svg>
